<svg width="24" height="14" viewBox="0 0 24 14" fill="none" xmlns="http://www.w3.org/2000/svg">
<g id="charging-icon 1" clip-path="url(#clip0_109_701)">
<path id="Vector" d="M21.7027 10.8708V9.75817H23.4441C23.5983 9.75817 23.737 9.6959 23.8369 9.59765C23.9412 9.49497 23.9998 9.3558 24 9.21064V4.78845C24 4.63807 23.9363 4.50015 23.8364 4.4019C23.7366 4.30365 23.5969 4.24092 23.4441 4.24092H21.7027V3.1288C21.7027 2.16982 20.9044 1.38566 19.9308 1.38566H14.3461L14.1328 2.53745H19.8038C20.2036 2.53745 20.5317 2.85942 20.5317 3.2538V10.7457C20.5317 11.1387 20.2031 11.4621 19.8038 11.4621H12.5658L11.8364 12.6143H19.9308C20.9062 12.6143 21.7027 11.8311 21.7027 10.8708ZM12.1397 5.43884H13.8745C14.2425 5.44022 14.4525 5.84475 14.2528 6.13858L9.40781 13.7869C9.14719 14.2062 8.47313 13.958 8.57156 13.4654L9.89203 8.50213L7.83422 8.53626C7.47844 8.54272 7.25906 8.16356 7.43531 7.86281L12.217 0.216339C12.4697 -0.195575 13.1231 0.0249123 13.0594 0.506017L12.1397 5.43884ZM9.7575 1.38566H1.77141C0.796406 1.38566 0 2.16936 0 3.1288V10.8708C0 11.8293 0.798281 12.6143 1.77141 12.6143H7.32141L7.62797 11.4621H1.89844C1.49812 11.4621 1.17047 11.1397 1.17047 10.7457V3.2538C1.17047 2.86126 1.49953 2.53745 1.89844 2.53745H9.02766C9.27047 2.1509 9.51375 1.76667 9.7575 1.38566Z" fill="white"/>
</g>
<defs>
<clipPath id="clip0_109_701">
<rect width="24" height="14" fill="white"/>
</clipPath>
</defs>
</svg>
