<svg width="21" height="20" viewBox="0 0 21 20" fill="none" xmlns="http://www.w3.org/2000/svg">
<g id="clock-timing-icon 1" clip-path="url(#clip0_109_685)">
<path id="Vector" d="M10.1216 8.03626e-06C12.436 -0.000653535 14.6791 0.801253 16.4685 2.26908C18.258 3.7369 19.4831 5.77981 19.9351 8.04969C20.3871 10.3196 20.038 12.6759 18.9473 14.7173C17.8567 16.7586 16.0919 18.3586 13.9537 19.2446C11.8156 20.1305 9.43637 20.2477 7.22152 19.576C5.00668 18.9044 3.09327 17.4855 1.80733 15.5612C0.521403 13.6369 -0.0574706 11.3262 0.169358 9.02289C0.396187 6.71959 1.41468 4.56621 3.05128 2.9297C3.97859 1.99955 5.08062 1.26188 6.294 0.759095C7.50738 0.256313 8.80818 -0.00165986 10.1216 8.03626e-06ZM10.6359 8.98113C10.8335 9.08098 10.998 9.23586 11.1096 9.42709H12.7209C12.6911 9.3559 12.6806 9.27815 12.6903 9.20161C12.7 9.12506 12.7297 9.05241 12.7762 8.99089C12.8469 8.90031 12.9505 8.8413 13.0645 8.82667C13.1785 8.81204 13.2936 8.84298 13.3849 8.91277L14.3436 9.65333C14.3946 9.69375 14.4357 9.74523 14.4639 9.80387C14.4921 9.86252 14.5066 9.9268 14.5064 9.99187V10.0016C14.5068 10.067 14.4923 10.1315 14.4641 10.1905C14.4359 10.2494 14.3947 10.3011 14.3436 10.3418L13.3849 11.0807C13.3098 11.1371 13.2184 11.1675 13.1245 11.1674C13.0306 11.1672 12.9392 11.1365 12.8643 11.08C12.7893 11.0234 12.7348 10.9439 12.7089 10.8537C12.6831 10.7634 12.6873 10.6671 12.7209 10.5794H11.1079C11.0204 10.725 10.9015 10.8492 10.7599 10.9429C10.6182 11.0366 10.4574 11.0974 10.2891 11.121C10.1209 11.1445 9.94959 11.1301 9.78766 11.0789C9.62572 11.0276 9.47729 10.9408 9.35322 10.8248C9.22916 10.7088 9.1326 10.5666 9.07061 10.4084C9.00862 10.2503 8.98277 10.0803 8.99496 9.9109C9.00714 9.74149 9.05705 9.57694 9.14103 9.42931C9.22501 9.28167 9.34093 9.15468 9.48032 9.05763L9.49334 6.85385C9.40477 6.89039 9.30658 6.89651 9.21415 6.87127C9.12173 6.84602 9.04029 6.79082 8.98259 6.71433C8.9249 6.63784 8.8942 6.54437 8.89532 6.44856C8.89645 6.35275 8.92932 6.26003 8.98878 6.1849L9.74888 5.24415C9.78814 5.1951 9.83758 5.15515 9.89378 5.12705C9.94997 5.09895 10.0116 5.08337 10.0744 5.08139H10.0842C10.1536 5.0797 10.2224 5.09479 10.2847 5.1254C10.3471 5.156 10.4011 5.20121 10.4422 5.25717L11.16 6.23373C11.216 6.30951 11.2458 6.4015 11.2448 6.49575C11.2438 6.58999 11.2121 6.68133 11.1545 6.7559C11.0968 6.83047 11.0164 6.8842 10.9255 6.90893C10.8346 6.93366 10.738 6.92803 10.6506 6.89291L10.6359 8.98113ZM14.2166 16.1328C14.2602 16.2414 14.2634 16.362 14.2255 16.4727C14.1877 16.5834 14.1113 16.6769 14.0104 16.736C13.9094 16.7952 13.7906 16.8161 13.6755 16.795C13.5604 16.7739 13.4567 16.7122 13.3833 16.6211L13.0236 15.9994C12.98 15.8908 12.9769 15.7702 13.0147 15.6594C13.0526 15.5487 13.129 15.4553 13.2299 15.3962C13.3308 15.337 13.4497 15.3161 13.5648 15.3372C13.6798 15.3583 13.7835 15.42 13.8569 15.5111L14.2166 16.1344V16.1328ZM6.02492 3.86557C5.98653 3.75779 5.9872 3.63994 6.02683 3.53261C6.06646 3.42527 6.14252 3.33527 6.24174 3.27829C6.34097 3.22132 6.45705 3.20099 6.56972 3.22087C6.6824 3.24075 6.78451 3.29956 6.85825 3.38705L7.21795 4.0088C7.26402 4.06346 7.29753 4.12757 7.3161 4.1966C7.33468 4.26563 7.33787 4.3379 7.32545 4.4083C7.31303 4.4787 7.2853 4.54552 7.24423 4.60403C7.20315 4.66254 7.14973 4.71131 7.08774 4.74691C7.02574 4.78251 6.95669 4.80406 6.88545 4.81004C6.81422 4.81602 6.74253 4.80629 6.67547 4.78153C6.60841 4.75677 6.5476 4.71759 6.49734 4.66675C6.44709 4.61591 6.40861 4.55466 6.38462 4.48731L6.02492 3.86557ZM16.7346 13.2634C16.8019 13.2873 16.8631 13.3258 16.914 13.3761C16.9648 13.4263 17.004 13.4871 17.0288 13.5542C17.0535 13.6213 17.0633 13.693 17.0573 13.7642C17.0513 13.8354 17.0297 13.9045 16.9942 13.9665C16.9586 14.0285 16.9098 14.0819 16.8513 14.123C16.7928 14.164 16.7259 14.1918 16.6555 14.2042C16.5851 14.2166 16.5129 14.2134 16.4438 14.1948C16.3748 14.1763 16.3107 14.1428 16.256 14.0967L15.6343 13.737C15.5468 13.6633 15.488 13.5611 15.4681 13.4485C15.4482 13.3358 15.4686 13.2197 15.5255 13.1205C15.5825 13.0213 15.6725 12.9452 15.7798 12.9056C15.8872 12.8659 16.005 12.8653 16.1128 12.9037L16.7346 13.2634ZM3.50701 6.73666C3.44185 6.7105 3.38309 6.6706 3.33475 6.61966C3.28642 6.56873 3.24963 6.50797 3.22691 6.44153C3.20419 6.37509 3.19606 6.30453 3.20309 6.23466C3.21012 6.16479 3.23213 6.09727 3.26763 6.03668C3.30313 5.9761 3.35128 5.92388 3.40879 5.88359C3.46631 5.84331 3.53183 5.8159 3.6009 5.80325C3.66997 5.79059 3.74096 5.79298 3.80902 5.81025C3.87708 5.82752 3.94062 5.85927 3.99529 5.90333L4.61867 6.26303C4.70977 6.33644 4.77148 6.44013 4.79258 6.55521C4.81367 6.6703 4.79273 6.78913 4.73358 6.89008C4.67443 6.99103 4.581 7.06738 4.47029 7.10524C4.35959 7.1431 4.23897 7.13995 4.13039 7.09636L3.50701 6.73666ZM17.4816 9.51661C17.5969 9.53437 17.702 9.59279 17.7779 9.68131C17.8538 9.76982 17.8955 9.88258 17.8955 9.9992C17.8955 10.1158 17.8538 10.2286 17.7779 10.3171C17.702 10.4056 17.5969 10.464 17.4816 10.4818H16.7622C16.647 10.464 16.5419 10.4056 16.466 10.3171C16.39 10.2286 16.3483 10.1158 16.3483 9.9992C16.3483 9.88258 16.39 9.76982 16.466 9.68131C16.5419 9.59279 16.647 9.53437 16.7622 9.51661H17.4816ZM2.76157 10.4834C2.69198 10.4941 2.6209 10.4897 2.55319 10.4704C2.48548 10.451 2.42276 10.4173 2.36931 10.3715C2.31587 10.3256 2.27297 10.2688 2.24356 10.2048C2.21415 10.1408 2.19892 10.0712 2.19892 10.0008C2.19892 9.93041 2.21415 9.86084 2.24356 9.79686C2.27297 9.73289 2.31587 9.67603 2.36931 9.63019C2.42276 9.58435 2.48548 9.55062 2.55319 9.53129C2.6209 9.51197 2.69198 9.50751 2.76157 9.51824H3.48097C3.59622 9.536 3.70131 9.59442 3.77723 9.68293C3.85315 9.77145 3.89488 9.88421 3.89488 10.0008C3.89488 10.1174 3.85315 10.2302 3.77723 10.3187C3.70131 10.4072 3.59622 10.4656 3.48097 10.4834H2.76157ZM16.256 5.90333C16.3638 5.86494 16.4817 5.86561 16.589 5.90524C16.6963 5.94487 16.7863 6.02093 16.8433 6.12016C16.9003 6.21938 16.9206 6.33546 16.9007 6.44813C16.8809 6.56081 16.822 6.66293 16.7346 6.73666L16.1128 7.09636C16.005 7.13475 15.8872 7.13408 15.7798 7.09445C15.6725 7.05482 15.5825 6.97876 15.5255 6.87954C15.4686 6.78031 15.4482 6.66424 15.4681 6.55156C15.488 6.43888 15.5468 6.33676 15.6343 6.26303L16.256 5.90333ZM3.98716 14.0967C3.93249 14.1428 3.86838 14.1763 3.79935 14.1948C3.73032 14.2134 3.65805 14.2166 3.58765 14.2042C3.51725 14.1918 3.45044 14.164 3.39193 14.123C3.33342 14.0819 3.28464 14.0285 3.24904 13.9665C3.21345 13.9045 3.1919 13.8354 3.18591 13.7642C3.17993 13.693 3.18966 13.6213 3.21442 13.5542C3.23918 13.4871 3.27837 13.4263 3.32921 13.3761C3.38004 13.3258 3.4413 13.2873 3.50864 13.2634L4.13039 12.9037C4.23817 12.8653 4.35601 12.8659 4.46335 12.9056C4.57068 12.9452 4.66069 13.0213 4.71766 13.1205C4.77464 13.2197 4.79496 13.3358 4.77508 13.4485C4.7552 13.5611 4.69639 13.6633 4.6089 13.737L3.98716 14.0967ZM13.3849 3.38705C13.4587 3.29956 13.5608 3.24075 13.6735 3.22087C13.7861 3.20099 13.9022 3.22132 14.0014 3.27829C14.1007 3.33527 14.1767 3.42527 14.2164 3.53261C14.256 3.63994 14.2567 3.75779 14.2183 3.86557L13.8586 4.48731C13.8346 4.55466 13.7961 4.61591 13.7459 4.66675C13.6956 4.71759 13.6348 4.75677 13.5677 4.78153C13.5007 4.80629 13.429 4.81602 13.3577 4.81004C13.2865 4.80406 13.2175 4.78251 13.1555 4.74691C13.0935 4.71131 13.04 4.66254 12.999 4.60403C12.9579 4.54552 12.9302 4.4787 12.9177 4.4083C12.9053 4.3379 12.9085 4.26563 12.9271 4.1966C12.9457 4.12757 12.9792 4.06346 13.0252 4.0088L13.3849 3.38705ZM6.85825 16.6146C6.78484 16.7057 6.68115 16.7674 6.56607 16.7885C6.45098 16.8096 6.33215 16.7887 6.2312 16.7295C6.13025 16.6704 6.0539 16.5769 6.01604 16.4662C5.97818 16.3555 5.98133 16.2349 6.02492 16.1263L6.38462 15.5029C6.45803 15.4118 6.56172 15.3501 6.6768 15.329C6.79189 15.3079 6.91072 15.3289 7.01167 15.388C7.11262 15.4472 7.18897 15.5406 7.22683 15.6513C7.26469 15.762 7.26154 15.8826 7.21795 15.9912L6.85825 16.613V16.6146ZM9.6382 2.63998C9.65596 2.52473 9.71438 2.41964 9.8029 2.34372C9.89141 2.2678 10.0042 2.22607 10.1208 2.22607C10.2374 2.22607 10.3502 2.2678 10.4387 2.34372C10.5272 2.41964 10.5856 2.52473 10.6034 2.63998V3.35938C10.5856 3.47463 10.5272 3.57973 10.4387 3.65564C10.3502 3.73156 10.2374 3.7733 10.1208 3.7733C10.0042 3.7733 9.89141 3.73156 9.8029 3.65564C9.71438 3.57973 9.65596 3.47463 9.6382 3.35938V2.63998ZM10.6034 17.36C10.6141 17.4296 10.6096 17.5007 10.5903 17.5684C10.571 17.6361 10.5373 17.6988 10.4914 17.7523C10.4456 17.8057 10.3887 17.8486 10.3247 17.878C10.2608 17.9075 10.1912 17.9227 10.1208 17.9227C10.0504 17.9227 9.9808 17.9075 9.91682 17.878C9.85285 17.8486 9.79599 17.8057 9.75015 17.7523C9.70432 17.6988 9.67058 17.6361 9.65125 17.5684C9.63193 17.5007 9.62747 17.4296 9.6382 17.36V16.6406C9.65596 16.5254 9.71438 16.4203 9.8029 16.3444C9.89141 16.2685 10.0042 16.2267 10.1208 16.2267C10.2374 16.2267 10.3502 16.2685 10.4387 16.3444C10.5272 16.4203 10.5856 16.5254 10.6034 16.6406V17.36ZM16.3976 3.72559C14.945 2.27558 13.0346 1.37405 10.9919 1.17461C8.94913 0.97516 6.90042 1.49013 5.19477 2.63178C3.48913 3.77344 2.23207 5.47114 1.63775 7.43568C1.04344 9.40021 1.14864 11.51 1.93542 13.4057C2.72221 15.3014 4.14192 16.8656 5.95267 17.8319C7.76342 18.7983 9.8532 19.1069 11.866 18.7052C13.8787 18.3036 15.69 17.2165 16.9912 15.6291C18.2923 14.0418 19.0029 12.0525 19.0018 10C19.0024 8.83418 18.7727 7.67972 18.3258 6.60295C17.8789 5.52619 17.2236 4.54834 16.3976 3.72559Z" fill="#7D7D7D"/>
</g>
<defs>
<clipPath id="clip0_109_685">
<rect width="20" height="20" fill="white" transform="translate(0.121582)"/>
</clipPath>
</defs>
</svg>
