<svg width="19" height="20" viewBox="0 0 19 20" fill="none" xmlns="http://www.w3.org/2000/svg">
<g id="direction-road-sign-icon 1" clip-path="url(#clip0_109_680)">
<g id="Group">
<path id="Vector" d="M13.7988 2.87435H3.80046L0.929371 4.63704L3.81023 6.59831H13.8005V2.87435H13.7988ZM4.01043 8.71094H7.72299V7.22331H3.72234C3.667 7.22331 3.61003 7.20866 3.55958 7.17773L0.148121 4.89095C0.104176 4.86328 0.065113 4.82422 0.0374438 4.77539C-0.0455641 4.62565 0.00977449 4.43522 0.159514 4.35384L3.5433 2.30632C3.59376 2.27051 3.65561 2.25098 3.72234 2.25098H7.72299V1.31022L8.95183 0L10.3255 1.31022V2.24935H14.1113C14.2839 2.24935 14.4238 2.38932 14.4238 2.56185V6.91081C14.4238 7.08333 14.2839 7.22331 14.1113 7.22331H10.3255V8.71094H14.3994C14.4662 8.71094 14.5264 8.7321 14.5785 8.76628L17.9622 10.8138C18.112 10.8968 18.1673 11.0856 18.0843 11.2354C18.0567 11.2842 18.0192 11.3232 17.9736 11.3509L14.5622 13.6393C14.5117 13.6702 14.4548 13.6849 14.3994 13.6849H10.3255V17.6237H12.8418C13.0957 17.6237 13.3024 17.832 13.3024 18.0843V19.5378C13.3024 19.7917 13.0941 19.9984 12.8418 19.9984H5.20671C4.95281 19.9984 4.7461 19.79 4.7461 19.5378V18.431C4.7461 17.9867 5.10906 17.6237 5.55339 17.6237H7.72299V13.6849H4.01043C3.8379 13.6849 3.69793 13.5449 3.69793 13.3724V9.02344C3.69793 8.85091 3.8379 8.71094 4.01043 8.71094ZM14.3229 9.33594H4.32293V13.0599H14.3132L17.194 11.0986L14.3229 9.33594Z" fill="#7D7D7D"/>
</g>
</g>
<defs>
<clipPath id="clip0_109_680">
<rect width="18.1217" height="20" fill="white"/>
</clipPath>
</defs>
</svg>
