<svg width="18" height="20" viewBox="0 0 18 20" fill="none" xmlns="http://www.w3.org/2000/svg">
<g id="gas-station-icon 1" clip-path="url(#clip0_109_632)">
<g id="Group">
<path id="Vector" fill-rule="evenodd" clip-rule="evenodd" d="M16.0786 3.28776C16.1224 3.30892 16.1614 3.33659 16.1987 3.3724C16.2084 3.38216 16.2166 3.39193 16.2247 3.40169C16.6937 3.77441 17.1626 4.19596 17.5034 4.70378C17.8799 5.2653 18.0893 5.91471 17.9627 6.68457C17.9091 7.00684 17.7874 7.28841 17.6024 7.53744C17.4693 7.71484 17.3071 7.87109 17.1156 8.00781C17.1058 8.25684 17.1026 8.50098 17.1026 8.74349C17.1042 9.05436 17.114 9.375 17.1318 9.70378C17.1724 10.4753 17.2876 11.2533 17.4028 12.0247C17.5261 12.8548 17.6495 13.6784 17.6819 14.5361C17.7257 15.6348 17.5959 16.5381 17.234 17.1761C16.8316 17.889 16.1776 18.2699 15.2137 18.2357C14.0631 18.2145 13.3556 17.5667 13.0359 16.3704C12.7568 15.3239 12.799 13.8298 13.1154 11.9499C13.1057 10.4606 12.9125 9.33268 12.5296 8.57259C12.2797 8.07617 11.9405 7.7474 11.5121 7.59115V17.3438C11.6516 17.4105 11.7782 17.5016 11.8853 17.6107C12.132 17.8581 12.2862 18.2015 12.2862 18.5791V19.5524C12.2862 19.7982 12.0865 19.9984 11.8415 19.9984H0.444645C0.199603 19.9984 0 19.7982 0 19.5524V18.5791C0 18.2015 0.154165 17.8597 0.400829 17.6107C0.477101 17.5342 0.563109 17.4658 0.655608 17.4089V2.36328C0.655608 1.71224 0.920123 1.12142 1.34692 0.693359C1.77371 0.265299 2.36278 0 3.0119 0H9.14281C9.79355 0 10.3859 0.266927 10.8143 0.696615C11.2427 1.1263 11.5088 1.72038 11.5088 2.37467V6.66504C12.2975 6.83757 12.8996 7.34375 13.3182 8.17383C13.7678 9.06413 13.9917 10.3402 13.9982 11.9922C13.9982 12.0182 13.9966 12.0443 13.9917 12.0687H13.9933C13.6931 13.8379 13.6444 15.2181 13.8911 16.141C14.0972 16.9173 14.5321 17.3372 15.2283 17.347H15.2364C15.8303 17.3665 16.2247 17.1484 16.4567 16.7367C16.731 16.2516 16.8267 15.5078 16.7894 14.5703C16.7586 13.776 16.6369 12.9671 16.5168 12.1533C16.3999 11.3688 16.2831 10.5778 16.2393 9.74772C16.2214 9.42057 16.2117 9.08691 16.2101 8.74186C16.2084 8.46842 16.2133 8.19824 16.2247 7.93294C15.3954 7.20378 14.8907 6.47461 14.7349 5.7487C14.5873 5.06022 14.7431 4.39941 15.2218 3.7679C14.8567 3.51725 14.485 3.31217 14.1085 3.14779C13.5941 2.92318 13.5909 2.90365 13.0521 2.81576C12.8103 2.77669 12.6464 2.5472 12.6854 2.30469C12.7243 2.06217 12.9531 1.89779 13.1949 1.93685C13.8051 2.03613 13.8781 2.0752 14.4639 2.33073C15.0206 2.57487 15.5577 2.889 16.0786 3.28776ZM15.9309 4.31315C15.621 4.72982 15.5171 5.14648 15.608 5.56641C15.7167 6.07422 16.0948 6.61458 16.7245 7.18587C16.7878 7.12891 16.8446 7.06869 16.8916 7.00521C16.9906 6.87337 17.0572 6.71875 17.0847 6.54297C17.1691 6.02865 17.0247 5.58757 16.7651 5.2002C16.5508 4.87956 16.2523 4.58333 15.9309 4.31315ZM3.54742 2.04102H8.71114C8.9789 2.04102 9.22232 2.15007 9.39921 2.32747C9.41057 2.34049 9.42355 2.35189 9.43491 2.36654C9.5907 2.54069 9.68644 2.77018 9.68644 3.01758V6.32161C9.68644 6.59017 9.57771 6.83594 9.40083 7.01172C9.22557 7.1875 8.98215 7.29818 8.71277 7.29818H3.54742C3.28128 7.29818 3.03949 7.1875 2.86098 7.01172L2.85936 7.01335C2.6841 6.83757 2.57375 6.5918 2.57375 6.32324V3.01595C2.57375 2.7474 2.68247 2.50326 2.85936 2.32585C2.87234 2.31445 2.8837 2.30143 2.89831 2.29167C3.07194 2.13542 3.29913 2.04102 3.54742 2.04102ZM11.1048 18.1445C11.0918 18.1462 11.0804 18.1462 11.0674 18.1462H1.17815C1.12297 18.1706 1.07266 18.2048 1.03047 18.2471C0.944465 18.3333 0.890912 18.4521 0.890912 18.584V19.1113H11.3969V18.584C11.3969 18.4538 11.3433 18.335 11.2573 18.2471C11.2135 18.2031 11.1616 18.1689 11.1048 18.1445Z" fill="white"/>
</g>
</g>
<defs>
<clipPath id="clip0_109_632">
<rect width="18" height="20" fill="white"/>
</clipPath>
</defs>
</svg>
