<svg width="179" height="37" viewBox="0 0 179 37" fill="none" xmlns="http://www.w3.org/2000/svg">
<g id="Group 92">
<path id="text-0" d="M54.4724 10C56.0369 10 57.4706 10.1977 58.7733 10.593C59.3411 10.7702 59.8174 10.9663 60.2022 11.1813L59.9373 14.2746H59.1755C59.1755 13.4175 58.756 12.7312 57.9169 12.2156C57.0242 11.6653 55.7956 11.3901 54.2311 11.3901C52.206 11.3901 50.5311 12.0733 49.2063 13.4396C47.8909 14.8155 47.2333 16.5345 47.2333 18.5967C47.2333 20.7823 47.8405 22.6357 49.0549 24.1571C49.8813 25.1819 50.9254 25.8951 52.1871 26.2968C52.8337 26.5055 53.5687 26.6099 54.392 26.6099C55.2184 26.6099 55.9502 26.5625 56.5874 26.4676C57.2277 26.3695 57.7513 26.213 58.1582 25.9979C58.9594 25.5741 59.36 24.8561 59.36 23.844H60.1218L60.2827 26.8329C58.9452 27.611 56.9706 28 54.3589 28C51.479 28 49.1795 27.1618 47.4604 25.4855C45.8201 23.8882 45 21.8276 45 19.3036C45 16.5076 45.9715 14.2288 47.9146 12.4671C49.7094 10.8224 51.8953 10 54.4724 10ZM62.6957 10.2657H68.3593V11.2525L66.6228 11.5182V26.3442H72.9535L73.6349 23.7491H74.5859L74.4818 27.7343H62.6957V26.7475L64.4558 26.4818V11.5182L62.6957 11.2525V10.2657ZM85.1276 20.5751L84.7822 19.3606H80.5334V26.3442H86.9682L87.7962 24.2947H88.6762L88.293 27.7343H76.6062V26.7475L78.3616 26.4818V11.5182L76.6062 11.2525V10.2657H87.7867L88.0517 13.7053H87.0344L86.4098 11.67H80.5334V17.9705H84.7822L85.1276 16.7417H85.9509V20.5751H85.1276ZM92.4283 11.5182L97.7417 24.8735L103.031 11.5182L101.314 11.2525V10.2657H105.861V11.2525L104.56 11.4707L98.125 27.7343H96.8759L90.2329 11.5182L88.8607 11.2525V10.2657H94.2073V11.2525L92.4283 11.5182ZM114.723 20.5751L114.378 19.3606H110.124V26.3442H116.559L117.392 24.2947H118.267L117.888 27.7343H106.197V26.7475L107.952 26.4818V11.5182L106.197 11.2525V10.2657H117.377L117.642 13.7053H116.63L116.005 11.67H110.124V17.9705H114.378L114.723 16.7417H115.542V20.5751H114.723ZM132.187 12.9178C132.395 13.4523 132.499 14.0596 132.499 14.7396C132.499 15.4196 132.393 16.0364 132.182 16.5899C131.971 17.1465 131.665 17.6257 131.264 18.0274C130.501 18.7928 129.379 19.3289 127.9 19.6357L128.108 19.2562L132.669 26.2066L133.479 26.5625L135.111 26.7475V27.7343H131.146L125.951 19.408L126.921 19.8255H123.822V26.4818L125.558 26.7475V27.7343H119.894V26.7475L121.688 26.4818V11.5182L119.894 11.2525V10.2657H125.591C129.279 10.2657 131.477 11.1497 132.187 12.9178ZM125.705 11.67H123.822V18.573H125.534C128.029 18.573 129.539 17.8424 130.062 16.3811C130.223 15.9415 130.304 15.4655 130.304 14.9531C130.304 14.4407 130.231 13.9789 130.086 13.5677C129.938 13.1597 129.69 12.8166 129.343 12.5382C128.627 11.9594 127.414 11.67 125.705 11.67ZM135.953 11.2525V10.2657H141.612V11.2525L139.866 11.5182V26.4818L141.612 26.7475V27.7343H135.953V26.7475L137.732 26.4818V11.5182L135.953 11.2525ZM145.903 25.4855C145.153 24.7074 144.582 23.787 144.191 22.7243C143.803 21.6616 143.609 20.5878 143.609 19.5029C143.609 18.418 143.716 17.4597 143.93 16.6278C144.148 15.7928 144.448 15.0322 144.829 14.3458C145.208 13.6563 145.665 13.0427 146.201 12.505C146.738 11.9642 147.324 11.5071 147.962 11.1339C149.264 10.378 150.658 10 152.144 10C153.63 10 154.92 10.2182 156.015 10.6547C157.109 11.0912 158.03 11.6921 158.778 12.4576C160.292 14.0105 161.049 16.049 161.049 18.573C161.049 21.3848 160.199 23.6779 158.499 25.4523C157.713 26.2715 156.798 26.9009 155.754 27.3405C154.71 27.7802 153.543 28 152.253 28C150.963 28 149.771 27.777 148.676 27.331C147.578 26.8819 146.654 26.2667 145.903 25.4855ZM147.592 13.5345C147.031 14.1892 146.599 14.9531 146.296 15.826C145.99 16.699 145.837 17.553 145.837 18.388C145.837 19.2198 145.899 19.9678 146.022 20.632C146.145 21.2963 146.328 21.9241 146.571 22.5156C146.813 23.107 147.118 23.6542 147.484 24.1571C147.85 24.6568 148.275 25.0886 148.761 25.4523C149.793 26.224 151.009 26.6099 152.409 26.6099C154.327 26.6099 155.887 25.9584 157.089 24.6552C158.268 23.3711 158.858 21.6979 158.858 19.6357C158.858 17.3679 158.346 15.4813 157.32 13.9758C156.15 12.252 154.441 11.3901 152.191 11.3901C150.337 11.3901 148.804 12.1049 147.592 13.5345ZM164.006 10.2657H178.726L179 13.9852H177.959L177.372 11.67H172.437V26.4818L174.983 26.7475V27.7343H167.763V26.7475L170.28 26.4818V11.67H165.369L164.744 13.9852H163.732L164.006 10.2657Z" fill="white"/>
<g id="Group 91">
<path id="Vector" d="M20.2754 17.437C19.6546 16.1731 13.2477 8.10017 13.0313 8.22362C12.8149 8.34707 15.4107 18.5993 16.0323 19.8635C16.6532 21.127 18.1067 21.6085 19.278 20.9387C20.45 20.269 20.8967 18.7012 20.2754 17.437Z" fill="white"/>
<path id="Vector_2" d="M28.7525 18.5H26.7475C26.3553 18.5 26.037 18.1934 26.037 17.8148C26.037 17.4362 26.3553 17.1296 26.7475 17.1296H28.7525C29.1447 17.1296 29.463 17.4362 29.463 17.8148C29.463 18.1934 29.1447 18.5 28.7525 18.5Z" fill="white"/>
<path id="Vector_3" d="M18.5 0C8.28282 0 0 8.28245 0 18.5C0 28.7168 8.28282 37 18.5 37C28.7168 37 37 28.7168 37 18.5C37 8.28245 28.7168 0 18.5 0ZM18.5 4.69863C26.1224 4.69863 32.3014 10.8773 32.3014 18.5C32.3014 19.4309 32.2078 20.3407 32.032 21.2195H24.2184C23.5675 23.0939 21.258 24.4829 18.5 24.4829C15.742 24.4829 13.4321 23.0939 12.7813 21.2195H4.96762C4.79187 20.3407 4.69826 19.4309 4.69826 18.5C4.69826 10.8773 10.8776 4.69863 18.5 4.69863Z" fill="white"/>
<path id="Vector_4" d="M25.438 14.3889C25.1721 14.3889 24.9127 14.2806 24.7701 14.0875C24.5572 13.7993 24.6834 13.431 25.0525 13.2643L26.9361 12.4141C27.3044 12.2479 27.7766 12.3463 27.9891 12.6348C28.202 12.923 28.0759 13.2913 27.7068 13.458L25.8231 14.3082C25.7011 14.3625 25.5687 14.3889 25.438 14.3889Z" fill="white"/>
<path id="Vector_5" d="M18.5 10.963C18.1214 10.963 17.8148 10.645 17.8148 10.2525V8.24753C17.8148 7.85496 18.1214 7.53704 18.5 7.53704C18.8782 7.53704 19.1852 7.85496 19.1852 8.24753V10.2525C19.1852 10.6447 18.8782 10.963 18.5 10.963Z" fill="white"/>
<path id="Vector_6" d="M22.5282 12.3333C22.426 12.3333 22.3222 12.3 22.2274 12.2297C21.9391 12.0167 21.8405 11.5452 22.0066 11.1768L22.857 9.29287C23.0234 8.92365 23.3924 8.79825 23.68 9.01082C23.9683 9.2238 24.067 9.69539 23.9008 10.0638L23.0504 11.9477C22.9389 12.1952 22.7361 12.3333 22.5282 12.3333Z" fill="white"/>
<path id="Vector_7" d="M10.2525 18.5H8.24753C7.85496 18.5 7.53704 18.1934 7.53704 17.8148C7.53704 17.4362 7.85496 17.1296 8.24753 17.1296H10.2525C10.645 17.1296 10.963 17.4362 10.963 17.8148C10.963 18.1934 10.645 18.5 10.2525 18.5Z" fill="white"/>
<path id="Vector_8" d="M11.7162 15.0741C11.6119 15.0741 11.5057 15.0394 11.4084 14.9665L9.90098 13.8328C9.60634 13.6109 9.50506 13.1195 9.67507 12.7351C9.84574 12.3512 10.2226 12.2193 10.5176 12.4408L12.0249 13.5745C12.3196 13.7969 12.4209 14.2879 12.2509 14.6722C12.1367 14.9297 11.9292 15.0741 11.7162 15.0741Z" fill="white"/>
</g>
</g>
</svg>
