<svg width="20" height="18" viewBox="0 0 20 18" fill="none" xmlns="http://www.w3.org/2000/svg">
<g id="heart-thin-icon 2" clip-path="url(#clip0_109_638)">
<g id="Group">
<path id="Vector" d="M10.6543 3.18522C10.5436 3.3024 10.4329 3.42122 10.2962 3.56282L9.92025 3.95507L9.52962 3.57584C9.41406 3.46354 9.29687 3.34798 9.18294 3.23567C7.97526 2.04752 7.06543 1.15234 5.19206 1.12792C5.11881 1.1263 5.04069 1.12792 4.95931 1.13118C3.91113 1.16861 2.94434 1.55436 2.23796 2.21354C1.54134 2.86458 1.09701 3.78743 1.08236 4.91048C1.08073 4.98046 1.08236 5.05371 1.08561 5.13346C1.19792 8.26985 4.19922 11.0059 6.68783 13.2731C7.16797 13.7109 7.62858 14.1309 8.06966 14.5557L9.90234 16.3216L12.2054 14.0365C12.5765 13.6686 12.9964 13.2666 13.4456 12.8369C14.209 12.1045 15.0586 11.2923 15.8496 10.4736C16.4176 9.88606 16.9564 9.29524 17.4137 8.72721C17.863 8.17057 18.2308 7.6416 18.4668 7.16959C18.8542 6.39485 18.9762 5.62011 18.8932 4.89583C18.8118 4.18131 18.5303 3.51399 18.1087 2.94433C17.6807 2.36653 17.111 1.88802 16.4583 1.56087C15.7064 1.18652 14.8454 1.00911 13.9648 1.11002C12.4463 1.2858 11.6374 2.14355 10.6543 3.18522ZM9.89095 2.41699C11.014 1.22721 11.9466 0.252274 13.8411 0.0358022C14.9349 -0.0895233 16.0059 0.128576 16.9385 0.597326C17.7441 1.00097 18.4473 1.59016 18.9746 2.30143C19.5068 3.02083 19.8633 3.86556 19.9674 4.77376C20.0732 5.69498 19.9202 6.67643 19.4303 7.65299C19.1536 8.20475 18.7435 8.7972 18.2536 9.40429C17.7734 10 17.2135 10.6152 16.626 11.2223C15.8203 12.0573 14.9642 12.8776 14.1927 13.6165C13.7419 14.0478 13.3203 14.4515 12.9655 14.8031L10.2865 17.4609L9.91048 17.8337L9.52962 17.4674L7.31608 15.3353C6.91081 14.9463 6.44206 14.5182 5.9554 14.0739C3.31706 11.6667 0.131836 8.76464 0.00325521 5.17089C0 5.083 0 4.99186 0 4.89746C0.0195312 3.4554 0.595703 2.26399 1.49902 1.42089C2.39421 0.585932 3.61003 0.0976512 4.91862 0.0504507C5.00814 0.0471955 5.10254 0.0455678 5.20182 0.0471954C7.48698 0.0781199 8.5319 1.0791 9.89095 2.41699Z" fill="black"/>
</g>
</g>
<defs>
<clipPath id="clip0_109_638">
<rect width="20" height="17.8337" fill="white"/>
</clipPath>
</defs>
</svg>
