<svg width="13" height="17" viewBox="0 0 13 17" fill="none" xmlns="http://www.w3.org/2000/svg">
<g id="logout-icon 1" clip-path="url(#clip0_109_650)">
<g id="Group">
<path id="Vector" d="M10.9471 8.93679H5.5434C5.30461 8.93679 5.11107 8.74117 5.11107 8.50003C5.11107 8.25875 5.30461 8.06313 5.5434 8.06313H10.9468L9.18924 6.05019C9.03153 5.8702 9.04827 5.59517 9.22646 5.43607C9.40465 5.27684 9.67705 5.29358 9.83463 5.47356L12.2254 8.21171C12.3722 8.37925 12.3677 8.62938 12.2226 8.79139L9.83449 11.5265C9.67677 11.7066 9.40451 11.7234 9.22632 11.564C9.04827 11.4047 9.03153 11.1297 9.1891 10.9497L10.9471 8.93679ZM5.86533 16.1413C6.099 16.1979 6.2426 16.4332 6.18602 16.6669C6.12944 16.9006 5.89425 17.0443 5.66044 16.9876C5.13459 16.86 4.6115 16.7564 4.13144 16.6614C1.4424 16.1287 0 15.8432 0 12.0182V4.72968C0 1.10113 1.53288 0.814612 4.07167 0.340222C4.56585 0.247945 5.10208 0.147783 5.66044 0.0122032C5.89411 -0.0443805 6.12944 0.099223 6.18602 0.333028C6.24246 0.566695 6.099 0.802023 5.86533 0.858606C5.27169 1.00262 4.73075 1.10362 4.23215 1.19686C2.138 1.58811 0.873657 1.8244 0.873657 4.72968V12.0182C0.873657 15.1264 2.06938 15.3633 4.29856 15.8047C4.76645 15.8974 5.27625 15.9985 5.86533 16.1413Z" fill="white"/>
</g>
</g>
<defs>
<clipPath id="clip0_109_650">
<rect width="12.3334" height="17" fill="white"/>
</clipPath>
</defs>
</svg>
