<svg width="20" height="20" viewBox="0 0 20 20" fill="none" xmlns="http://www.w3.org/2000/svg">
<g id="miss-call-icon 1" clip-path="url(#clip0_109_708)">
<g id="Group">
<path id="Vector" d="M19.0304 6.7874C19.477 6.78415 19.8376 7.14147 19.836 7.58974C19.8343 8.03638 19.4738 8.4002 19.0271 8.40345L15.376 8.57561C14.4324 8.45217 13.747 7.75378 13.695 6.73705L13.7421 2.49635L13.0145 3.15251C12.7042 3.43349 12.2235 3.40913 11.9425 3.09891C11.6615 2.7887 11.6859 2.30794 11.9961 2.02696L14.0182 0.196527C14.2943 -0.0535951 14.7068 -0.061716 14.9911 0.159171L17.2828 1.93601C17.6141 2.19263 17.6774 2.67013 17.4192 3.00309C17.1626 3.33442 16.6851 3.39776 16.3521 3.13952L15.3581 2.36804L15.4588 6.88647L19.0304 6.7874Z" fill="#D8453E"/>
<path id="Vector_2" d="M11.6761 13.4091C11.1337 12.433 10.51 11.4959 9.69791 10.6383C8.88582 9.77749 7.87559 8.99464 6.56489 8.32711C6.46906 8.27838 6.37648 8.27838 6.29527 8.31249C6.17021 8.36122 6.04515 8.46192 5.91847 8.58698C5.82264 8.6828 5.70083 8.83872 5.57577 9.00764C5.07228 9.6703 4.45022 10.4921 3.5683 10.0812C3.54881 10.0715 3.53419 10.0617 3.5147 10.052L0.581452 8.36447C0.571707 8.35959 0.561962 8.34985 0.552217 8.34498C0.164041 8.08024 0.0048725 7.66932 0 7.20481C0 6.73055 0.173786 6.19945 0.430404 5.74956C0.768231 5.15511 1.26685 4.76369 1.84181 4.50219C2.38915 4.25207 2.99659 4.11402 3.58129 4.02794C4.49894 3.89313 5.35975 3.97921 6.24005 4.25045C7.10086 4.51519 7.96654 4.95696 8.91343 5.54166L8.98165 5.58551C9.41692 5.85513 9.88631 6.14748 10.3459 6.49018C12.0335 7.7619 13.7486 9.59883 14.8676 11.6209C15.8048 13.3182 16.318 15.1519 16.0387 16.8962C15.8844 17.8529 15.4718 18.7234 14.7572 19.2984C14.1335 19.8019 13.2922 20.0763 12.204 19.9805C12.0789 19.9708 11.9669 19.8977 11.91 19.7921L10.0292 16.6104C9.75475 16.253 9.72064 15.899 9.87007 15.5465C9.99513 15.2574 10.2469 14.9894 10.5912 14.7393C10.6919 14.6532 10.8137 14.5655 10.9388 14.4746C11.3594 14.1709 11.8386 13.8168 11.6745 13.401L11.6761 13.4091Z" fill="white"/>
</g>
</g>
<defs>
<clipPath id="clip0_109_708">
<rect width="19.836" height="20" fill="white"/>
</clipPath>
</defs>
</svg>
