<svg width="24" height="24" viewBox="0 0 24 24" fill="none" xmlns="http://www.w3.org/2000/svg">
<g id="more-options-ellipsis-icon 1">
<g id="Group">
<path id="Vector" d="M12 22C9.23958 22 6.73958 20.8802 4.92969 19.0703C3.11979 17.262 2 14.762 2 12C2 9.23958 3.11979 6.73796 4.92969 4.92969C6.73958 3.11979 9.23958 2 12 2C14.7604 2 17.262 3.11979 19.0703 4.92969C20.8802 6.73958 22 9.23958 22 12C22 14.7604 20.8802 17.262 19.0703 19.0703C17.262 20.8802 14.762 22 12 22ZM12 6.97721C12.6494 6.97721 13.1751 7.50456 13.1751 8.15234C13.1751 8.80013 12.6478 9.32747 12 9.32747C11.3506 9.32747 10.8232 8.80176 10.8232 8.15234C10.8232 7.50293 11.3506 6.97721 12 6.97721ZM12 14.8402C12.6494 14.8402 13.1751 15.3659 13.1751 16.0169C13.1751 16.6663 12.6478 17.1921 12 17.1921C11.3506 17.1921 10.8232 16.6663 10.8232 16.0169C10.8232 15.3675 11.3506 14.8402 12 14.8402ZM12 10.9079C12.6494 10.9079 13.1751 11.4352 13.1751 12.083C13.1751 12.7324 12.6478 13.2581 12 13.2581C11.3506 13.2581 10.8232 12.7308 10.8232 12.083C10.8249 11.4352 11.3506 10.9079 12 10.9079ZM6.10156 17.8984C7.61198 19.4072 9.69694 20.3398 12 20.3398C14.3031 20.3398 16.388 19.4056 17.8984 17.8968C19.4072 16.388 20.3415 14.3031 20.3415 11.9984C20.3415 9.69368 19.4072 7.61035 17.8984 6.10156C16.3896 4.59277 14.3047 3.65853 12 3.65853C9.69694 3.65853 7.61198 4.59277 6.10319 6.10156C4.59277 7.61198 3.66016 9.69694 3.66016 12C3.66016 14.3031 4.59277 16.388 6.10156 17.8984Z" fill="#2B2B2B"/>
</g>
</g>
</svg>
