<svg width="20" height="20" viewBox="0 0 20 20" fill="none" xmlns="http://www.w3.org/2000/svg">
<g id="notification-bell-icon 1" clip-path="url(#clip0_109_716)">
<path id="Vector" d="M12.0182 1.21632C13.1948 1.58045 14.255 2.24754 15.0924 3.1507C15.9986 4.1175 16.6069 5.32504 16.8444 6.62867V6.67427C16.8786 6.87129 16.903 7.05854 16.9177 7.23439C16.9356 7.43955 16.9453 7.64634 16.9453 7.85313V9.50257C16.9453 9.96011 16.9453 10.4258 16.9779 10.8931C17.0208 11.7315 17.263 12.5476 17.6846 13.2736C18.1589 14.0172 18.7923 14.6461 19.5392 15.1152C19.751 15.2537 19.9045 15.4652 19.9707 15.7095C20.0202 15.9002 20.0157 16.1009 19.9576 16.2892C19.9005 16.4773 19.7929 16.6462 19.6466 16.7777C19.4554 16.9453 19.2089 17.0364 18.9546 17.0333H13.3957V17.0463C12.7216 20.9867 7.27181 20.9753 6.61399 17.0333H1.0502C0.782074 17.0393 0.52215 16.9406 0.325624 16.7581C0.18583 16.6245 0.0846658 16.4557 0.0327967 16.2694C-0.0190724 16.0832 -0.0197249 15.8864 0.0309081 15.6997C0.101179 15.4476 0.26476 15.2316 0.488451 15.0957C1.41005 14.472 2.05484 13.793 2.46191 13.018C2.86898 12.2429 3.05623 11.3181 3.05623 10.2043V7.85313C3.05623 7.66425 3.066 7.45909 3.08554 7.23927C3.10508 7.01946 3.13276 6.82895 3.16858 6.62705C3.40296 5.36238 3.98205 4.18701 4.84198 3.23054C5.70191 2.27407 6.80928 1.57366 8.04198 1.20655C8.79261 -0.402181 11.2676 -0.405437 12.0182 1.21632ZM14.2815 3.90784C13.5206 3.08612 12.5421 2.49721 11.4597 2.20956C11.3678 2.1843 11.2838 2.13584 11.216 2.06884C11.1481 2.00184 11.0986 1.91854 11.0722 1.82692C10.7938 0.871124 9.28109 0.849956 9.00103 1.81878C8.97376 1.91318 8.92207 1.99873 8.85117 2.06677C8.78027 2.13481 8.69267 2.18294 8.59722 2.2063C7.5086 2.48097 6.52141 3.06167 5.75242 3.87972C4.98343 4.69776 4.4648 5.71893 4.25789 6.82244C4.22749 6.99395 4.2047 7.16492 4.1895 7.33534C4.17485 7.49817 4.16833 7.661 4.16833 7.85313V10.2043C4.16833 11.4923 3.94363 12.5751 3.44376 13.5309C2.96504 14.446 2.24535 15.2227 1.23908 15.9277H18.769C17.9514 15.3842 17.2592 14.6726 16.7386 13.8403C16.2277 12.967 15.9319 11.9847 15.8756 10.9745C15.8397 10.5056 15.8414 9.99756 15.843 9.50908V7.85313C15.843 7.67402 15.843 7.4998 15.8218 7.32883C15.8007 7.15786 15.7876 7.00318 15.7632 6.86477L15.7535 6.82081C15.5539 5.72908 15.0453 4.71753 14.288 3.90621L14.2815 3.90784Z" fill="white"/>
</g>
<defs>
<clipPath id="clip0_109_716">
<rect width="20.0081" height="20" fill="white"/>
</clipPath>
</defs>
</svg>
