<svg width="18" height="17" viewBox="0 0 18 17" fill="none" xmlns="http://www.w3.org/2000/svg">
<g id="radio-fm-icon 1" clip-path="url(#clip0_109_642)">
<g id="Group">
<path id="Vector" fill-rule="evenodd" clip-rule="evenodd" d="M12.394 7.58793C14.417 7.58793 16.0576 9.22761 16.0576 11.2494C16.0576 13.2712 14.417 14.9109 12.394 14.9109C10.3711 14.9109 8.73047 13.2712 8.73047 11.2494C8.73047 9.22761 10.3711 7.58793 12.394 7.58793ZM1.83545 5.37143C1.87646 5.3319 1.92773 5.29969 1.98486 5.27773L6.21094 3.70246C6.30322 3.66879 6.3999 3.66733 6.48779 3.69368C6.51562 3.67172 6.54639 3.65269 6.58154 3.64097L9.27539 2.63081C9.33545 2.60885 9.39844 2.60446 9.45703 2.61617C9.46143 2.61325 9.46729 2.61178 9.47168 2.61032L12.2329 1.53281C12.3105 1.50207 12.394 1.50792 12.4629 1.54159C12.4717 1.53574 12.4819 1.53135 12.4937 1.52695L15.2769 0.455305C15.2886 0.450913 15.3003 0.447985 15.312 0.445057C15.3281 0.196176 15.5347 0 15.7866 0C16.0503 0 16.2627 0.213744 16.2627 0.475801C16.2627 0.737857 16.0488 0.951602 15.7866 0.951602C15.6489 0.951602 15.5259 0.893042 15.4395 0.800809C15.4307 0.805201 15.4219 0.809594 15.4131 0.812522L12.6299 1.88417C12.624 1.8871 12.6167 1.88856 12.6108 1.89003C12.5845 1.96908 12.5259 2.03643 12.4424 2.06864L9.68115 3.14614C9.6709 3.15053 9.66211 3.15346 9.65186 3.15639C9.61523 3.20177 9.5669 3.23837 9.5083 3.26033L6.81445 4.2705C6.79395 4.27782 6.77344 4.28367 6.75293 4.2866C6.70752 4.38762 6.62256 4.4696 6.51123 4.51059L4.19971 5.37289H16.5352C16.938 5.37289 17.3042 5.53686 17.5693 5.80184C17.8345 6.06683 17.9985 6.43283 17.9985 6.83543V15.5375C17.9985 15.9401 17.8345 16.3061 17.5693 16.571C17.3042 16.836 16.938 17 16.5352 17H1.46338C1.06055 17 0.694336 16.836 0.429199 16.571C0.164063 16.3061 0 15.9401 0 15.5375V6.83543C0 6.43283 0.164063 6.06683 0.429199 5.80184C0.694336 5.53686 1.06055 5.37289 1.46338 5.37289H1.83545V5.37143ZM2.02002 13.0194C1.80762 13.0194 1.63477 12.8466 1.63477 12.6343C1.63477 12.4221 1.80762 12.2493 2.02002 12.2493H6.74854C6.96094 12.2493 7.13379 12.4221 7.13379 12.6343C7.13379 12.8466 6.96094 13.0194 6.74854 13.0194H2.02002ZM2.02002 14.4775C1.80762 14.4775 1.63477 14.3048 1.63477 14.0925C1.63477 13.8802 1.80762 13.7075 2.02002 13.7075H7.75488C7.96729 13.7075 8.14014 13.8802 8.14014 14.0925C8.14014 14.3048 7.96729 14.4775 7.75488 14.4775H2.02002ZM2.02002 8.6464C1.80762 8.6464 1.63477 8.47365 1.63477 8.26137C1.63477 8.04909 1.80762 7.87633 2.02002 7.87633H7.59082C7.80322 7.87633 7.97607 8.04909 7.97607 8.26137C7.97607 8.47365 7.80322 8.6464 7.59082 8.6464H2.02002ZM2.02002 10.1045C1.80762 10.1045 1.63477 9.93179 1.63477 9.71951C1.63477 9.50723 1.80762 9.33448 2.02002 9.33448H6.74854C6.96094 9.33448 7.13379 9.50723 7.13379 9.71951C7.13379 9.93179 6.96094 10.1045 6.74854 10.1045H2.02002ZM2.02002 11.5627C1.80762 11.5627 1.63477 11.3899 1.63477 11.1777C1.63477 10.9654 1.80762 10.7926 2.02002 10.7926H6.5376C6.75 10.7926 6.92285 10.9654 6.92285 11.1777C6.92285 11.3899 6.75 11.5627 6.5376 11.5627H2.02002ZM16.5366 6.28643H1.46338C1.3125 6.28643 1.17627 6.34792 1.0752 6.44747C0.975586 6.54702 0.914062 6.68464 0.914062 6.83543V15.5375C0.914062 15.6883 0.975586 15.8244 1.0752 15.9254C1.1748 16.025 1.3125 16.0865 1.46338 16.0865H16.5366C16.6875 16.0865 16.8237 16.025 16.9248 15.9254C17.0244 15.8259 17.0859 15.6883 17.0859 15.5375V6.83543C17.0859 6.68464 17.0244 6.54848 16.9248 6.44747C16.8237 6.34792 16.6875 6.28643 16.5366 6.28643ZM12.394 8.64494C13.8325 8.64494 15 9.81028 15 11.2494C15 12.687 13.834 13.8539 12.394 13.8539C10.9541 13.8539 9.78809 12.6885 9.78809 11.2494C9.78955 9.81175 10.9556 8.64494 12.394 8.64494ZM12.394 10.4837C12.8174 10.4837 13.1602 10.8263 13.1602 11.2494C13.1602 11.6725 12.8174 12.0151 12.394 12.0151C11.9707 12.0151 11.6279 11.6725 11.6279 11.2494C11.6279 10.8263 11.9707 10.4837 12.394 10.4837Z" fill="white"/>
</g>
</g>
<defs>
<clipPath id="clip0_109_642">
<rect width="18" height="17" fill="white"/>
</clipPath>
</defs>
</svg>
