<svg width="20" height="18" viewBox="0 0 20 18" fill="none" xmlns="http://www.w3.org/2000/svg">
<g id="speedometer-icon 1" clip-path="url(#clip0_109_627)">
<g id="Group">
<path id="Vector" d="M9.46452 8.62305L14.1195 5.65755C14.152 5.63314 14.1976 5.63802 14.2253 5.66732L14.6745 6.14583C14.7021 6.17513 14.7038 6.22233 14.6777 6.25325L11.1507 10.3516C10.6494 10.8903 10.1139 10.9961 9.68262 10.8561C9.46777 10.7861 9.2806 10.6575 9.13737 10.4899C8.99414 10.3239 8.89486 10.1204 8.85417 9.90234C8.77442 9.46777 8.93392 8.98112 9.46126 8.62467L9.46452 8.62305ZM3.14616 17.2803C2.64974 16.8131 2.20215 16.2956 1.8099 15.7373C1.4209 15.1839 1.08724 14.5882 0.81543 13.9616C0.55013 13.3464 0.345052 12.6986 0.205078 12.0247C0.0716146 11.3704 0 10.6934 0 10C0 8.64583 0.270182 7.35514 0.756836 6.17676C1.26465 4.9528 2.00684 3.85091 2.92969 2.92969C3.85091 2.00846 4.9528 1.26465 6.17676 0.758463C7.35514 0.270182 8.64583 0 10 0C11.3509 0 12.6383 0.270182 13.8135 0.758463C15.0374 1.26628 16.1377 2.01172 17.0605 2.93457C17.985 3.85905 18.7305 4.96256 19.2383 6.1849C19.7282 7.36328 20 8.65234 20 10C20 10.6592 19.9349 11.3037 19.8112 11.9287C19.6842 12.57 19.4938 13.1901 19.248 13.7842C18.9974 14.388 18.6898 14.9642 18.3301 15.5013C17.9671 16.0449 17.5521 16.5511 17.0931 17.015C17.0622 17.0459 17.0101 17.0459 16.9792 17.015L16.4795 16.5169C16.4697 16.5137 16.46 16.5072 16.4518 16.499L15.0586 15.1058C15.0277 15.0749 15.0277 15.0228 15.0586 14.9919L15.7894 14.2611C15.8203 14.2301 15.8724 14.2301 15.9033 14.2611L16.9792 15.3369C17.207 15.0407 17.417 14.7314 17.6058 14.4092C17.8092 14.0641 17.9883 13.7028 18.1429 13.3301C18.3512 12.8255 18.5156 12.2965 18.6263 11.7497C18.7305 11.2419 18.7891 10.7161 18.8005 10.1807H17.3177C17.2738 10.1807 17.2363 10.1449 17.2363 10.0993V9.06575C17.2363 9.02181 17.2721 8.98437 17.3177 8.98437H18.7435C18.6328 8.03223 18.3675 7.12402 17.9753 6.28581C17.57 5.42155 17.028 4.63379 16.377 3.94694L15.4232 4.90072C15.3923 4.93164 15.3402 4.93164 15.3092 4.90072L14.5785 4.16992C14.5475 4.139 14.5475 4.08691 14.5785 4.05599L15.498 3.13639C14.7754 2.55534 13.96 2.08496 13.0778 1.75293C12.2233 1.43229 11.307 1.24023 10.3516 1.2028V2.50977C10.3516 2.55371 10.3158 2.59115 10.2702 2.59115H9.23503C9.19108 2.59115 9.15365 2.55534 9.15365 2.50977V1.23535C8.20475 1.32487 7.29818 1.56738 6.46159 1.93359C5.59733 2.31283 4.80632 2.82715 4.11458 3.44727L5.06999 4.40267C5.10091 4.43359 5.10091 4.48568 5.06999 4.5166L4.33919 5.2474C4.30827 5.27832 4.25619 5.27832 4.22526 5.2474L3.28125 4.30338C2.67415 5.01953 2.17773 5.83496 1.82292 6.722C1.48112 7.58463 1.2679 8.51074 1.21094 9.47754H2.68066C2.72461 9.47754 2.76204 9.51334 2.76204 9.55892V10.5941C2.76204 10.638 2.72624 10.6755 2.68066 10.6755H1.2207C1.25651 11.154 1.33138 11.6195 1.44043 12.0719C1.55762 12.5618 1.71712 13.0355 1.91406 13.4912C2.08496 13.8867 2.28353 14.2659 2.50651 14.6273C2.71647 14.9674 2.94922 15.293 3.20313 15.599L4.38151 14.4206C4.41244 14.3896 4.46452 14.3896 4.49544 14.4206L5.22624 15.1514C5.25716 15.1823 5.25716 15.2344 5.22624 15.2653C4.55241 15.9391 3.90951 16.5853 3.25846 17.277C3.22917 17.3096 3.17871 17.3112 3.14616 17.2803Z" fill="white"/>
</g>
</g>
<defs>
<clipPath id="clip0_109_627">
<rect width="20" height="17.3014" fill="white"/>
</clipPath>
</defs>
</svg>
