<svg width="20" height="20" viewBox="0 0 20 20" fill="none" xmlns="http://www.w3.org/2000/svg">
<path id="Vector" d="M9.99715 8.03364e-06C12.3108 -0.000653321 14.5532 0.800992 16.342 2.26834C18.1309 3.73568 19.3556 5.77793 19.8075 8.04707C20.2593 10.3162 19.9103 12.6718 18.82 14.7125C17.7297 16.7532 15.9655 18.3526 13.828 19.2383C11.6906 20.124 9.31214 20.2411 7.09802 19.5697C4.8839 18.8982 2.97111 17.4798 1.6856 15.5561C0.400087 13.6324 -0.178598 11.3225 0.0481573 9.01994C0.274912 6.7174 1.29308 4.56472 2.92914 2.92874C3.85615 1.9989 4.95782 1.26146 6.1708 0.758847C7.38379 0.25623 8.68416 -0.00165932 9.99715 8.03364e-06ZM10.5113 8.9782C10.7088 9.07802 10.8733 9.23285 10.9848 9.42402H12.5956C12.5659 9.35285 12.5553 9.27512 12.565 9.19861C12.5747 9.12209 12.6044 9.04946 12.6509 8.98796C12.7216 8.89741 12.8252 8.83842 12.9391 8.82379C13.0531 8.80917 13.1682 8.8401 13.2594 8.90986L14.2178 9.65018C14.2688 9.69059 14.3099 9.74205 14.3381 9.80068C14.3663 9.8593 14.3808 9.92356 14.3805 9.98861V9.99837C14.3809 10.0637 14.3665 10.1282 14.3383 10.1871C14.3101 10.246 14.2689 10.2978 14.2178 10.3384L13.2594 11.0771C13.1843 11.1335 13.0929 11.1639 12.9991 11.1637C12.9052 11.1636 12.8139 11.1329 12.7389 11.0763C12.664 11.0198 12.6095 10.9404 12.5836 10.8501C12.5578 10.7599 12.562 10.6637 12.5956 10.576H10.9832C10.8957 10.7215 10.7768 10.8457 10.6352 10.9393C10.4936 11.033 10.3328 11.0938 10.1646 11.1173C9.99649 11.1409 9.8252 11.1265 9.66332 11.0753C9.50144 11.024 9.35305 10.9373 9.22903 10.8213C9.105 10.7053 9.00847 10.5631 8.9465 10.405C8.88454 10.247 8.8587 10.077 8.87088 9.90767C8.88306 9.73831 8.93295 9.57382 9.0169 9.42623C9.10085 9.27864 9.21674 9.1517 9.35608 9.05467L9.3691 6.85161C9.28056 6.88814 9.1824 6.89426 9.09 6.86903C8.99761 6.84379 8.91619 6.78861 8.85852 6.71214C8.80084 6.63567 8.77016 6.54223 8.77128 6.44646C8.7724 6.35068 8.80526 6.25799 8.86471 6.18289L9.62455 5.24244C9.66381 5.19341 9.71323 5.15347 9.76941 5.12538C9.82558 5.09729 9.88719 5.08172 9.94997 5.07973H9.95973C10.0291 5.07804 10.0979 5.09313 10.1602 5.12373C10.2226 5.15432 10.2766 5.19951 10.3177 5.25546L11.0352 6.2317C11.0912 6.30745 11.121 6.39942 11.12 6.49363C11.119 6.58784 11.0873 6.67915 11.0297 6.7537C10.9721 6.82825 10.8917 6.88196 10.8008 6.90668C10.7099 6.9314 10.6134 6.92578 10.526 6.89066L10.5113 8.9782ZM14.0909 16.1276C14.1344 16.2361 14.1376 16.3567 14.0997 16.4674C14.0619 16.578 13.9856 16.6714 13.8847 16.7306C13.7837 16.7897 13.6649 16.8106 13.5499 16.7895C13.4348 16.7684 13.3312 16.7068 13.2578 16.6157L12.8982 15.9941C12.8546 15.8856 12.8515 15.765 12.8893 15.6543C12.9272 15.5437 13.0035 15.4503 13.1044 15.3911C13.2054 15.332 13.3241 15.3111 13.4392 15.3322C13.5542 15.3533 13.6579 15.4149 13.7313 15.506L14.0909 16.1292V16.1276ZM5.90181 3.86431C5.86343 3.75656 5.86411 3.63876 5.90372 3.53146C5.94334 3.42416 6.01937 3.33418 6.11856 3.27722C6.21775 3.22027 6.33379 3.19995 6.44643 3.21982C6.55907 3.23969 6.66116 3.29849 6.73487 3.38595L7.09445 4.00749C7.14051 4.06213 7.174 4.12622 7.19257 4.19523C7.21114 4.26424 7.21433 4.33649 7.20191 4.40687C7.1895 4.47724 7.16178 4.54404 7.12072 4.60253C7.07966 4.66102 7.02625 4.70978 6.96428 4.74536C6.90231 4.78095 6.83327 4.80249 6.76206 4.80847C6.69085 4.81445 6.61919 4.80472 6.55215 4.77997C6.48511 4.75522 6.42432 4.71605 6.37408 4.66523C6.32384 4.6144 6.28537 4.55317 6.26139 4.48585L5.90181 3.86431ZM16.608 13.259C16.6753 13.283 16.7365 13.3215 16.7873 13.3717C16.8382 13.422 16.8773 13.4827 16.9021 13.5498C16.9268 13.6168 16.9366 13.6885 16.9306 13.7597C16.9246 13.8309 16.903 13.8999 16.8675 13.9619C16.8319 14.0239 16.7831 14.0773 16.7246 14.1184C16.6661 14.1594 16.5993 14.1871 16.529 14.1996C16.4586 14.212 16.3863 14.2088 16.3173 14.1902C16.2483 14.1716 16.1842 14.1381 16.1296 14.0921L15.508 13.7325C15.4206 13.6588 15.3618 13.5567 15.3419 13.4441C15.3221 13.3314 15.3424 13.2154 15.3993 13.1162C15.4563 13.017 15.5463 12.941 15.6536 12.9014C15.7609 12.8617 15.8787 12.8611 15.9864 12.8994L16.608 13.259ZM3.38472 6.73447C3.31958 6.70831 3.26084 6.66842 3.21252 6.6175C3.1642 6.56659 3.12743 6.50585 3.10471 6.43943C3.082 6.37301 3.07387 6.30247 3.0809 6.23263C3.08793 6.16279 3.10993 6.09528 3.14542 6.03471C3.18091 5.97415 3.22904 5.92195 3.28654 5.88168C3.34403 5.84141 3.40954 5.81401 3.47858 5.80135C3.54763 5.7887 3.61859 5.79109 3.68663 5.80835C3.75467 5.82562 3.81819 5.85736 3.87285 5.9014L4.49602 6.26099C4.58709 6.33438 4.64878 6.43803 4.66987 6.55308C4.69095 6.66812 4.67002 6.78692 4.61089 6.88783C4.55176 6.98875 4.45836 7.06508 4.34769 7.10292C4.23702 7.14077 4.11644 7.13762 4.00789 7.09405L3.38472 6.73447ZM17.3548 9.51351C17.47 9.53126 17.575 9.58966 17.6509 9.67815C17.7268 9.76664 17.7686 9.87936 17.7686 9.99593C17.7686 10.1125 17.7268 10.2252 17.6509 10.3137C17.575 10.4022 17.47 10.4606 17.3548 10.4784H16.6356C16.5204 10.4606 16.4153 10.4022 16.3394 10.3137C16.2636 10.2252 16.2218 10.1125 16.2218 9.99593C16.2218 9.87936 16.2636 9.76664 16.3394 9.67815C16.4153 9.58966 16.5204 9.53126 16.6356 9.51351H17.3548ZM2.63952 10.48C2.56996 10.4907 2.4989 10.4863 2.43121 10.4669C2.36353 10.4476 2.30082 10.4139 2.2474 10.3681C2.19397 10.3222 2.15108 10.2654 2.12168 10.2015C2.09228 10.1375 2.07706 10.0679 2.07706 9.99756C2.07706 9.92717 2.09228 9.85762 2.12168 9.79367C2.15108 9.72972 2.19397 9.67288 2.2474 9.62705C2.30082 9.58123 2.36353 9.5475 2.43121 9.52818C2.4989 9.50887 2.56996 9.50441 2.63952 9.51513H3.35869C3.47391 9.53289 3.57896 9.59129 3.65486 9.67978C3.73075 9.76826 3.77247 9.88099 3.77247 9.99756C3.77247 10.1141 3.73075 10.2269 3.65486 10.3153C3.57896 10.4038 3.47391 10.4622 3.35869 10.48H2.63952ZM16.1296 5.9014C16.2373 5.86302 16.3551 5.8637 16.4624 5.90332C16.5697 5.94293 16.6597 6.01897 16.7167 6.11816C16.7736 6.21735 16.7939 6.33339 16.7741 6.44603C16.7542 6.55867 16.6954 6.66075 16.608 6.73447L15.9864 7.09405C15.8787 7.13243 15.7609 7.13175 15.6536 7.09213C15.5463 7.05252 15.4563 6.97648 15.3993 6.87729C15.3424 6.7781 15.3221 6.66206 15.3419 6.54942C15.3618 6.43678 15.4206 6.3347 15.508 6.26099L16.1296 5.9014ZM3.86471 14.0921C3.81007 14.1381 3.74598 14.1716 3.67697 14.1902C3.60796 14.2088 3.53571 14.212 3.46534 14.1996C3.39496 14.1871 3.32817 14.1594 3.26968 14.1184C3.21119 14.0773 3.16243 14.0239 3.12684 13.9619C3.09125 13.8999 3.06971 13.8309 3.06373 13.7597C3.05775 13.6885 3.06748 13.6168 3.09223 13.5498C3.11698 13.4827 3.15615 13.422 3.20697 13.3717C3.2578 13.3215 3.31903 13.283 3.38635 13.259L4.00789 12.8994C4.11564 12.8611 4.23345 12.8617 4.34074 12.9014C4.44804 12.941 4.53802 13.017 4.59498 13.1162C4.65194 13.2154 4.67225 13.3314 4.65238 13.4441C4.63251 13.5567 4.57371 13.6588 4.48625 13.7325L3.86471 14.0921ZM13.2594 3.38595C13.3331 3.29849 13.4352 3.23969 13.5479 3.21982C13.6605 3.19995 13.7766 3.22027 13.8757 3.27722C13.9749 3.33418 14.051 3.42416 14.0906 3.53146C14.1302 3.63876 14.1309 3.75656 14.0925 3.86431L13.7329 4.48585C13.7089 4.55317 13.6705 4.6144 13.6202 4.66523C13.57 4.71605 13.5092 4.75522 13.4422 4.77997C13.3751 4.80472 13.3035 4.81445 13.2322 4.80847C13.161 4.80249 13.092 4.78095 13.03 4.74536C12.968 4.70978 12.9146 4.66102 12.8736 4.60253C12.8325 4.54404 12.8048 4.47724 12.7924 4.40687C12.78 4.33649 12.7832 4.26424 12.8017 4.19523C12.8203 4.12622 12.8538 4.06213 12.8998 4.00749L13.2594 3.38595ZM6.73487 16.6092C6.66148 16.7002 6.55783 16.7619 6.44278 16.783C6.32773 16.8041 6.20894 16.7832 6.10802 16.7241C6.00711 16.6649 5.93078 16.5715 5.89293 16.4608C5.85508 16.3502 5.85823 16.2296 5.90181 16.1211L6.26139 15.4979C6.33478 15.4068 6.43843 15.3451 6.55348 15.324C6.66853 15.3029 6.78732 15.3239 6.88824 15.383C6.98915 15.4421 7.06548 15.5355 7.10333 15.6462C7.14118 15.7569 7.13803 15.8775 7.09445 15.986L6.73487 16.6075V16.6092ZM9.51391 2.63912C9.53167 2.52391 9.59007 2.41885 9.67855 2.34296C9.76704 2.26706 9.87976 2.22534 9.99634 2.22534C10.1129 2.22534 10.2256 2.26706 10.3141 2.34296C10.4026 2.41885 10.461 2.52391 10.4788 2.63912V3.35829C10.461 3.4735 10.4026 3.57856 10.3141 3.65445C10.2256 3.73035 10.1129 3.77207 9.99634 3.77207C9.87976 3.77207 9.76704 3.73035 9.67855 3.65445C9.59007 3.57856 9.53167 3.4735 9.51391 3.35829V2.63912ZM10.4788 17.3544C10.4895 17.4239 10.485 17.495 10.4657 17.5627C10.4464 17.6304 10.4127 17.6931 10.3668 17.7465C10.321 17.7999 10.2642 17.8428 10.2002 17.8722C10.1363 17.9016 10.0667 17.9168 9.99634 17.9168C9.92595 17.9168 9.8564 17.9016 9.79244 17.8722C9.72849 17.8428 9.67165 17.7999 9.62583 17.7465C9.58001 17.6931 9.54628 17.6304 9.52696 17.5627C9.50764 17.495 9.50319 17.4239 9.51391 17.3544V16.6352C9.53167 16.52 9.59007 16.4149 9.67855 16.339C9.76704 16.2631 9.87976 16.2214 9.99634 16.2214C10.1129 16.2214 10.2256 16.2631 10.3141 16.339C10.4026 16.4149 10.461 16.52 10.4788 16.6352V17.3544ZM16.2711 3.72438C14.819 2.27484 12.9092 1.37361 10.8671 1.17422C8.82507 0.974842 6.77702 1.48964 5.07193 2.63092C3.36684 3.7722 2.11019 5.46936 1.51607 7.43325C0.921951 9.39714 1.02711 11.5063 1.81365 13.4013C2.60018 15.2964 4.01942 16.8601 5.82958 17.8261C7.63974 18.7921 9.72884 19.1006 11.741 18.6991C13.7531 18.2976 15.5637 17.2108 16.8645 15.624C18.1652 14.0372 18.8755 12.0485 18.8745 9.99675C18.8751 8.8313 18.6454 7.67722 18.1987 6.6008C17.7519 5.52439 17.0969 4.54686 16.2711 3.72438Z" fill="#7D7D7D"/>
</svg>
